# xmcd
# Copyright (C) 1995-1998 Ti Kan
#
# Track frame offsets:
#       150
#       1537
#       91298
#       181951
#
# Disc length: 3597 seconds
#
# Revision: 0
# Processed by: cddbd v1.5.2PL0 Copyright (c) Steve Scherf et al.
# Submitted via: CD-Import v1.0
#
DISCID=1d0e0b04
DTITLE=Lokalfilter - 
DYEAR=1900
DGENRE=
TTITLE0=Anmodi Lokalfilter Farlow
TTITLE1=Lokalfilter Farlow1
TTITLE2=Lokalfilter Farlow2
TTITLE3=Lokalfilter Farlow3
EXTD=
EXTT0=
EXTT1=
EXTT2=
EXTT3=
PLAYORDER=
